<svg id="svg" version="1.1" xmlns="http://www.w3.org/2000/svg" xmlns:xlink="http://www.w3.org/1999/xlink" width="400" height="400" viewBox="0, 0, 400,400"><g id="svgg"><path id="path0" d="M175.023 0.581 C 129.181 6.076,86.604 37.589,48.375 94.318 C 16.289 141.930,0.193 188.251,0.185 232.999 C 0.176 284.508,18.978 316.907,68.368 350.490 C 149.612 405.730,256.255 416.185,324.157 375.566 C 387.416 337.724,414.492 258.865,393.075 174.840 C 378.736 118.585,341.974 68.320,289.292 32.936 C 251.704 7.690,211.255 -3.763,175.023 0.581 M206.381 18.391 C 270.298 27.137,339.367 84.552,366.729 151.686 C 399.638 232.428,380.266 317.543,319.964 357.168 C 251.798 401.959,136.286 385.833,58.297 320.637 C 25.000 292.802,12.475 257.655,19.166 210.834 C 27.333 153.688,66.421 86.266,114.690 46.065 C 141.366 23.849,174.090 13.972,206.381 18.391 " stroke="none" fill="#fca494" fill-rule="evenodd"></path><path id="path1" d="" stroke="none" fill="#100a494" fill-rule="evenodd"></path><path id="path2" d="" stroke="none" fill="#100a494" fill-rule="evenodd"></path><path id="path3" d="" stroke="none" fill="#100a494" fill-rule="evenodd"></path><path id="path4" d="" stroke="none" fill="#100a494" fill-rule="evenodd"></path></g></svg>